<svg width="20" height="21" viewbox="0 0 20 21" fill="none" xmlns="http://www.w3.org/2000/svg">
<path d="M12 17C12.2653 17 12.5196 16.8947 12.7071 16.7071C12.8947 16.5196 13 16.2652 13 16V14C13 13.7348 12.8947 13.4805 12.7071 13.2929C12.5196 13.1054 12.2653 13 12 13C11.7348 13 11.4805 13.1054 11.2929 13.2929C11.1054 13.4805 11 13.7348 11 14V16C11 16.2652 11.1054 16.5196 11.2929 16.7071C11.4805 16.8947 11.7348 17 12 17ZM8.00004 17C8.26525 17 8.51961 16.8947 8.70714 16.7071C8.89468 16.5196 9.00004 16.2652 9.00004 16V14C9.00004 13.7348 8.89468 13.4805 8.70714 13.2929C8.51961 13.1054 8.26525 13 8.00004 13C7.73482 13 7.48047 13.1054 7.29293 13.2929C7.10539 13.4805 7.00004 13.7348 7.00004 14V16C7.00004 16.2652 7.10539 16.5196 7.29293 16.7071C7.48047 16.8947 7.73482 17 8.00004 17ZM17 5.00003H15.62L13.89 1.55003C13.8372 1.42308 13.7587 1.3084 13.6595 1.21316C13.5603 1.11791 13.4426 1.04414 13.3136 0.996469C13.1846 0.948794 13.0472 0.928235 12.9099 0.936075C12.7726 0.943915 12.6384 0.979987 12.5157 1.04204C12.3929 1.10408 12.2843 1.19078 12.1966 1.2967C12.1089 1.40261 12.044 1.52548 12.006 1.65762C11.9679 1.78976 11.9575 1.92833 11.9754 2.06467C11.9933 2.20102 12.0391 2.3322 12.11 2.45003L13.38 5.00003H6.62004L7.89004 2.45003C7.9871 2.21693 7.9924 1.95575 7.90486 1.71891C7.81732 1.48208 7.64343 1.28712 7.4181 1.17319C7.19277 1.05926 6.93268 1.03479 6.69005 1.10469C6.44742 1.17458 6.24022 1.33368 6.11004 1.55003L4.38004 5.00003H3.00004C2.29323 5.01078 1.61291 5.27077 1.07909 5.73416C0.545259 6.19755 0.192211 6.83455 0.0822073 7.53283C-0.0277959 8.23112 0.112313 8.94581 0.477823 9.55088C0.843332 10.1559 1.41076 10.6125 2.08004 10.84L2.82004 18.3C2.89466 19.0426 3.24338 19.7307 3.79811 20.2299C4.35284 20.7292 5.07374 21.0038 5.82004 21H14.2C14.9463 21.0038 15.6672 20.7292 16.222 20.2299C16.7767 19.7307 17.1254 19.0426 17.2 18.3L17.94 10.84C18.6108 10.6118 19.1791 10.1536 19.5443 9.54651C19.9096 8.93942 20.0482 8.22266 19.9356 7.52317C19.823 6.82368 19.4665 6.18661 18.9292 5.7248C18.3919 5.26299 17.7085 5.00624 17 5.00003ZM15.19 18.1C15.1652 18.3475 15.0489 18.5769 14.864 18.7433C14.6791 18.9098 14.4388 19.0013 14.19 19H5.81004C5.56127 19.0013 5.32097 18.9098 5.13606 18.7433C4.95115 18.5769 4.83491 18.3475 4.81004 18.1L4.10004 11H15.9L15.19 18.1ZM17 9.00003H3.00004C2.73482 9.00003 2.48047 8.89467 2.29293 8.70713C2.10539 8.5196 2.00004 8.26524 2.00004 8.00003C2.00004 7.73481 2.10539 7.48046 2.29293 7.29292C2.48047 7.10538 2.73482 7.00003 3.00004 7.00003H17C17.2653 7.00003 17.5196 7.10538 17.7071 7.29292C17.8947 7.48046 18 7.73481 18 8.00003C18 8.26524 17.8947 8.5196 17.7071 8.70713C17.5196 8.89467 17.2653 9.00003 17 9.00003Z" fill="currentColor"></path>
</svg>